<?xml version="1.0" encoding="iso-8859-1"?>
<!DOCTYPE svg PUBLIC "-//W3C//DTD SVG 1.0//EN" "http://www.w3.org/TR/2001/REC-SVG-20010904/DTD/svg10.dtd">
<svg width="787" height="533" xmlns="http://www.w3.org/2000/svg" xmlns:xlink="http://www.w3.org/1999/xlink">
<g style="stroke:black;fill:lightgreen" transform="translate(30,30)">
<line x1="584" y1="184" x2="584" y2="218" style="stroke:blue; stroke-width:1"/>
<line x1="584" y1="218" x2="598" y2="218" style="stroke:blue; stroke-width:1"/>
<line x1="584" y1="184" x2="584" y2="151" style="stroke:blue; stroke-width:1"/>
<line x1="584" y1="151" x2="621" y2="151" style="stroke:blue; stroke-width:1"/>
<line x1="291" y1="50" x2="291" y2="83" style="stroke:blue; stroke-width:1"/>
<line x1="291" y1="83" x2="298" y2="83" style="stroke:blue; stroke-width:1"/>
<line x1="291" y1="50" x2="291" y2="16" style="stroke:blue; stroke-width:1"/>
<line x1="291" y1="16" x2="294" y2="16" style="stroke:blue; stroke-width:1"/>
<line x1="41" y1="453" x2="41" y2="487" style="stroke:blue; stroke-width:1"/>
<line x1="41" y1="487" x2="53" y2="487" style="stroke:blue; stroke-width:1"/>
<line x1="41" y1="453" x2="41" y2="420" style="stroke:blue; stroke-width:1"/>
<line x1="41" y1="420" x2="51" y2="420" style="stroke:blue; stroke-width:1"/>
<line x1="36" y1="319" x2="36" y2="352" style="stroke:blue; stroke-width:1"/>
<line x1="36" y1="352" x2="63" y2="352" style="stroke:blue; stroke-width:1"/>
<line x1="36" y1="319" x2="36" y2="285" style="stroke:blue; stroke-width:1"/>
<line x1="36" y1="285" x2="71" y2="285" style="stroke:blue; stroke-width:1"/>
<line x1="127" y1="117" x2="127" y2="184" style="stroke:blue; stroke-width:1"/>
<line x1="127" y1="184" x2="584" y2="184" style="stroke:blue; stroke-width:1"/>
<line x1="127" y1="117" x2="127" y2="50" style="stroke:blue; stroke-width:1"/>
<line x1="127" y1="50" x2="291" y2="50" style="stroke:blue; stroke-width:1"/>
<line x1="16" y1="319" x2="16" y2="453" style="stroke:blue; stroke-width:1"/>
<line x1="16" y1="453" x2="41" y2="453" style="stroke:blue; stroke-width:1"/>
<line x1="16" y1="319" x2="16" y2="319" style="stroke:blue; stroke-width:1"/>
<line x1="16" y1="319" x2="36" y2="319" style="stroke:blue; stroke-width:1"/>
<line x1="16" y1="319" x2="16" y2="117" style="stroke:blue; stroke-width:1"/>
<line x1="16" y1="117" x2="127" y2="117" style="stroke:blue; stroke-width:1"/>
<text x="57" y="494" font-weight = "10" font-family="verdana" fill="black" font-size="18">Drosophila\_simulans</text>
<text x="55" y="427" font-weight = "10" font-family="verdana" fill="black" font-size="18">Drosophila\_sechellia</text>
<text x="67" y="359" font-weight = "10" font-family="verdana" fill="black" font-size="18">Drosophila\_erecta</text>
<text x="75" y="292" font-weight = "10" font-family="verdana" fill="black" font-size="18">Drosophila\_yakuba</text>
<text x="602" y="225" font-weight = "10" font-family="verdana" fill="black" font-size="18">Drosophila\_melanogaster</text>
<text x="625" y="158" font-weight = "10" font-family="verdana" fill="black" font-size="18">Drosophila\_mauritiana</text>
<text x="302" y="90" font-weight = "10" font-family="verdana" fill="black" font-size="18">Drosophila\_pseudoobscura\_pseudoobscura</text>
<text x="298" y="23" font-weight = "10" font-family="verdana" fill="black" font-size="18">Drosophila\_persimilis</text>
</g></svg>