<?xml version="1.0" encoding="iso-8859-1"?>
<!DOCTYPE svg PUBLIC "-//W3C//DTD SVG 1.0//EN" "http://www.w3.org/TR/2001/REC-SVG-20010904/DTD/svg10.dtd">
<svg width="1175" height="689" xmlns="http://www.w3.org/2000/svg" xmlns:xlink="http://www.w3.org/1999/xlink">
<g style="stroke:black;fill:lightgreen" transform="translate(30,30)">
<line x1="512" y1="382" x2="512" y2="434" style="stroke:blue; stroke-width:1"/>
<line x1="512" y1="434" x2="512" y2="434" style="stroke:blue; stroke-width:1"/>
<line x1="512" y1="382" x2="512" y2="329" style="stroke:blue; stroke-width:1"/>
<line x1="512" y1="329" x2="512" y2="329" style="stroke:blue; stroke-width:1"/>
<line x1="16" y1="460" x2="16" y2="538" style="stroke:blue; stroke-width:1"/>
<line x1="16" y1="538" x2="16" y2="538" style="stroke:blue; stroke-width:1"/>
<line x1="16" y1="458" x2="16" y2="643" style="stroke:blue; stroke-width:1"/>
<line x1="16" y1="643" x2="16" y2="643" style="stroke:blue; stroke-width:1"/>
<line x1="16" y1="147" x2="16" y2="225" style="stroke:blue; stroke-width:1"/>
<line x1="16" y1="225" x2="16" y2="225" style="stroke:blue; stroke-width:1"/>
<line x1="16" y1="68" x2="16" y2="120" style="stroke:blue; stroke-width:1"/>
<line x1="16" y1="120" x2="1009" y2="120" style="stroke:blue; stroke-width:1"/>
<line x1="16" y1="68" x2="16" y2="16" style="stroke:blue; stroke-width:1"/>
<line x1="16" y1="16" x2="16" y2="16" style="stroke:blue; stroke-width:1"/>
<line x1="16" y1="460" x2="16" y2="382" style="stroke:blue; stroke-width:1"/>
<line x1="16" y1="382" x2="512" y2="382" style="stroke:blue; stroke-width:1"/>
<line x1="16" y1="458" x2="16" y2="460" style="stroke:blue; stroke-width:1"/>
<line x1="16" y1="460" x2="16" y2="460" style="stroke:blue; stroke-width:1"/>
<line x1="16" y1="458" x2="16" y2="147" style="stroke:blue; stroke-width:1"/>
<line x1="16" y1="147" x2="16" y2="147" style="stroke:blue; stroke-width:1"/>
<line x1="16" y1="147" x2="16" y2="68" style="stroke:blue; stroke-width:1"/>
<line x1="16" y1="68" x2="16" y2="68" style="stroke:blue; stroke-width:1"/>
<text x="20" y="650" font-weight = "10" font-family="verdana" fill="black" font-size="18">Drosophila\_erecta</text>
<text x="20" y="545" font-weight = "10" font-family="verdana" fill="black" font-size="18">Drosophila\_yakuba</text>
<text x="516" y="441" font-weight = "10" font-family="verdana" fill="black" font-size="18">Drosophila\_pseudoobscura\_pseudoobscura</text>
<text x="516" y="336" font-weight = "10" font-family="verdana" fill="black" font-size="18">Drosophila\_persimilis</text>
<text x="20" y="232" font-weight = "10" font-family="verdana" fill="black" font-size="18">Drosophila\_sechellia</text>
<text x="1013" y="127" font-weight = "10" font-family="verdana" fill="black" font-size="18">Drosophila\_melanogaster</text>
<text x="20" y="23" font-weight = "10" font-family="verdana" fill="black" font-size="18">Drosophila\_simulans</text>
</g></svg>